<?xml version="1.0" encoding="UTF-8"?>
<svg id="Layer_1" data-name="Layer 1" xmlns="http://www.w3.org/2000/svg" viewBox="0 0 72 72">
  <defs>
    <style>
      .cls-1 {
        fill: none;
        stroke: #208ca5;
        stroke-miterlimit: 10;
        stroke-width: 2px;
      }
    </style>
  </defs>
  <path class="cls-1" d="M32.89,16.91h11.72l-.36-8.16c-.03-.57-.5-1.02-1.07-1.02h-8.86c-.57,0-1.04.45-1.07,1.02l-.36,8.16h0Z"/>
  <path class="cls-1" d="M34.8,17.08h-3.14c-.15,0-.26.13-.26.28v3.03c0,.16.12.28.26.28h14.22c.15,0,.26-.13.26-.28v-3.03c0-.16-.12-.28-.26-.28h-11.08Z"/>
  <g>
    <path class="cls-1" d="M29.8,22.02l.35-.8c.1-.23.33-.38.58-.38h15.6c.26,0,.49.16.59.4,2.25,5.64,12.24,15.89,3.09,41.88-.68,1.92-1.81,2.06-3.06,2.06h-23.93c-1.25,0-2.47-.11-3.06-2.06-8.82-29.23,4.8-36.06,9.84-41.09h0Z"/>
    <path class="cls-1" d="M29.8,22.02l.35-.8c.1-.23.33-.38.58-.38h15.6c.26,0,.49.16.59.4,2.25,5.64,12.24,15.89,3.09,41.88-.68,1.92-1.81,2.06-3.06,2.06h-23.93c-1.25,0-2.47-.11-3.06-2.06-8.82-29.23,4.8-36.06,9.84-41.09h0Z"/>
  </g>
  <g>
    <path class="cls-1" d="M23.85,49.94h0c1.7.46,3.04-.56,3.51-2.26l3-11c.46-1.7-.16-3.02-1.86-3.48h0c-1.7-.46-2.83.78-3.45,2.43-.76,2.06-2.09,4.89-3.09,10.48-.31,1.73.19,3.38,1.89,3.84h0Z"/>
    <path class="cls-1" d="M23.85,49.94h0c1.7.46,3.04-.56,3.51-2.26l3-11c.46-1.7-.16-3.02-1.86-3.48h0c-1.7-.46-2.83.78-3.45,2.43-.76,2.06-2.09,4.89-3.09,10.48-.31,1.73.19,3.38,1.89,3.84h0Z"/>
  </g>
</svg>