<?xml version="1.0" encoding="UTF-8"?>
<svg id="Layer_1" data-name="Layer 1" xmlns="http://www.w3.org/2000/svg" viewBox="0 0 72 72">
  <defs>
    <style>
      .cls-1 {
        fill: none;
        stroke: #208ca5;
        stroke-miterlimit: 10;
        stroke-width: 2px;
      }
    </style>
  </defs>
  <path class="cls-1" d="M52,17.66s-3.07-2.91-9.99.16c-6.92,3.08-10,9.21-13.46,20.21-3.36,10.69-8.46,18.64-23.06,13.45,0,0-1.92,5.2,8.07,7.41,9.99,2.2,18.45-5.68,20.76-15.29,0,0,.96,14.8,13.84,17.68s13.07-1.54,5.57-5.38c-7.5-3.84-10.19-14.99-6.53-21.91,3.65-6.92,8.65-11.53,4.8-16.34Z"/>
  <path class="cls-1" d="M28.39,38.53s-5.18.52-10.96-3.05c-5.78-3.56-2.96,8.62,7.13,11.21"/>
  <path class="cls-1" d="M45.67,42.89s5.56,4.37,15.55,2.06c9.99-2.31,6.34,8.33-11.93,7.23"/>
  <polyline class="cls-1" points="50.48 16.42 56.17 9.78 60.25 13.82 52.96 19.26"/>
</svg>