<?xml version="1.0" encoding="UTF-8"?>
<svg id="Layer_1" data-name="Layer 1" xmlns="http://www.w3.org/2000/svg" viewBox="0 0 72 72">
  <defs>
    <style>
      .cls-1 {
        fill: none;
        stroke: #208ca5;
        stroke-miterlimit: 10;
        stroke-width: 2px;
      }
    </style>
  </defs>
  <g>
    <polygon class="cls-1" points="23.76 41.89 24.21 42.13 26.55 43.43 25.93 39.15 24.53 29.51 18.06 32.36 11.66 35.18 14.83 36.94 8.49 47.91 14.38 58.12 29.78 58.12 29.78 47.91 20.28 47.91 23.76 41.89"/>
    <polygon class="cls-1" points="55.48 33.77 46.55 38.72 51.72 47.91 44.51 47.91 44.51 44.51 40.03 47.91 33.31 53.02 40.03 58.12 44.51 61.53 44.51 58.12 57.62 58.12 63.51 47.91 55.48 33.77"/>
    <polygon class="cls-1" points="36 20.68 39.11 26.07 39.06 26.1 35.95 27.83 48.82 33.5 50.08 24.77 50.83 19.58 48.04 21.12 41.89 10.47 30.11 10.47 22.14 24.25 31.06 29.2 36 20.68"/>
  </g>
  <line class="cls-1" x1="36" y1="20.68" x2="30.11" y2="11.02"/>
  <line class="cls-1" x1="20.28" y1="47.91" x2="14.38" y2="58.12"/>
  <line class="cls-1" x1="63.51" y1="47.91" x2="51.72" y2="47.91"/>
</svg>