<?xml version="1.0" encoding="UTF-8"?>
<svg id="Layer_1" data-name="Layer 1" xmlns="http://www.w3.org/2000/svg" viewBox="0 0 2300 2300">
  <defs>
    <style>
      .cls-1 {
        fill: #000;
      }
    </style>
  </defs>
  <g>
    <g>
      <g>
        <path class="cls-1" d="M1914.35,288.01l-.58-.51c-50.9-45.09-105.76-85.49-163.93-120.7l-6.53-3.95c-235.8,289.8-563.06,278.29-563.06,278.29,0,0-43.85,134.1-90.26,210.56,0,0,482.17,65.01,824.36-363.68Z"/>
        <path class="cls-1" d="M608.21,481.81s67.17-83.87,98.27-192.44c0,0-105.8-87.26-136.48-133.75l-4.39,2.51c-60.4,34.56-117.02,75.35-168.94,121.69h0c51.41,80.24,211.55,201.99,211.55,201.99Z"/>
      </g>
      <g>
        <path class="cls-1" d="M385.65,2011.99l.58.51c50.9,45.09,105.76,85.49,163.93,120.7l6.53,3.95c235.8-289.8,563.06-278.29,563.06-278.29,0,0,43.85-134.1,90.26-210.56,0,0-482.17-65.01-824.36,363.68Z"/>
        <path class="cls-1" d="M1691.79,1818.19s-67.17,83.87-98.27,192.44c0,0,105.8,87.26,136.48,133.75l4.39-2.51c60.4-34.56,117.02-75.35,168.94-121.69h0c-51.41-80.24-211.55-201.99-211.55-201.99Z"/>
      </g>
    </g>
    <g>
      <g>
        <path class="cls-1" d="M288.01,385.65l-.51.58c-45.09,50.9-85.49,105.76-120.7,163.93l-3.95,6.53c289.8,235.8,278.29,563.06,278.29,563.06,0,0,134.1,43.85,210.56,90.26,0,0,65.01-482.17-363.68-824.36Z"/>
        <path class="cls-1" d="M481.81,1691.79s-83.87-67.17-192.44-98.27c0,0-87.26,105.8-133.75,136.48l2.51,4.39c34.56,60.4,75.35,117.02,121.69,168.94h0c80.24-51.41,201.99-211.55,201.99-211.55Z"/>
      </g>
      <g>
        <path class="cls-1" d="M2011.99,1914.35l.51-.58c45.09-50.9,85.49-105.76,120.7-163.93l3.95-6.53c-289.8-235.8-278.29-563.06-278.29-563.06,0,0-134.1-43.85-210.56-90.26,0,0-65.01,482.17,363.68,824.36Z"/>
        <path class="cls-1" d="M1818.19,608.21s83.87,67.17,192.44,98.27c0,0,87.26-105.8,133.75-136.48l-2.51-4.39c-34.56-60.4-75.35-117.02-121.69-168.94h0c-80.24,51.41-201.99,211.55-201.99,211.55Z"/>
      </g>
    </g>
  </g>
  <g>
    <g>
      <g>
        <path class="cls-1" d="M1080.96,0l-.77.05c-67.87,4.11-135.23,14.34-201.26,30.57l-7.41,1.82c38.18,371.65-201.36,594.92-201.36,594.92,0,0,63.81,125.83,85.06,212.71C755.21,840.07,1142.12,545.09,1080.96,0Z"/>
        <path class="cls-1" d="M294.42,1060.62s-11.81-106.8-66.59-205.56c0,0-136.51,13.11-191.09,1.93l-1.33,4.88c-18.27,67.15-29.47,136.02-33.41,205.5h0c93.09,20.38,292.42-6.76,292.42-6.76Z"/>
      </g>
      <g>
        <path class="cls-1" d="M1219.04,2300l.77-.05c67.87-4.11,135.23-14.34,201.26-30.57l7.41-1.82c-38.18-371.65,201.36-594.92,201.36-594.92,0,0-63.81-125.83-85.06-212.71,0,0-386.91,294.97-325.75,840.07Z"/>
        <path class="cls-1" d="M2005.58,1239.38s11.81,106.8,66.59,205.56c0,0,136.51-13.11,191.09-1.93l1.33-4.88c18.27-67.15,29.47-136.02,33.41-205.5h0c-93.09-20.38-292.42,6.76-292.42,6.76Z"/>
      </g>
    </g>
    <g>
      <g>
        <path class="cls-1" d="M0,1219.04l.05.77c4.11,67.87,14.34,135.23,30.57,201.26l1.82,7.41c371.65-38.18,594.92,201.36,594.92,201.36,0,0,125.83-63.81,212.71-85.06C840.07,1544.79,545.09,1157.88,0,1219.04Z"/>
        <path class="cls-1" d="M1060.62,2005.58s-106.8,11.81-205.56,66.59c0,0,13.11,136.51,1.93,191.09l4.88,1.33c67.15,18.27,136.02,29.47,205.5,33.41h0c20.38-93.09-6.76-292.42-6.76-292.42Z"/>
      </g>
      <g>
        <path class="cls-1" d="M2300,1080.96l-.05-.77c-4.11-67.87-14.34-135.23-30.57-201.26l-1.82-7.41c-371.65,38.18-594.92-201.36-594.92-201.36,0,0-125.83,63.81-212.71,85.06,0,0,294.97,386.91,840.07,325.75Z"/>
        <path class="cls-1" d="M1239.38,294.42s106.8-11.81,205.56-66.59c0,0-13.11-136.51-1.93-191.09l-4.88-1.33c-67.15-18.27-136.02-29.47-205.5-33.41h0c-20.38,93.09,6.76,292.42,6.76,292.42Z"/>
      </g>
    </g>
  </g>
</svg>